<svg width="40" height="40" viewBox="0 0 74 74" fill="none" xmlns="http://www.w3.org/2000/svg">
<g filter="url(#filter0_d)">
<path fill-rule="evenodd" clip-rule="evenodd" d="M25.6658 48.1944C31.8869 54.4155 41.9733 54.4155 48.1944 48.1944C54.4154 41.9733 54.4154 31.8869 48.1944 25.6658C41.9733 19.4447 31.8869 19.4447 25.6658 25.6658C19.4447 31.8869 19.4447 41.9733 25.6658 48.1944ZM30.1609 43.7121C33.9065 47.4577 39.9793 47.4577 43.7249 43.7121C47.4705 39.9665 47.4705 33.8937 43.7249 30.1481C39.9793 26.4025 33.9065 26.4025 30.1609 30.1481C26.4153 33.8937 26.4153 39.9665 30.1609 43.7121Z" fill="#FFDD00"/>
</g>
<circle cx="37" cy="37" r="5" fill="#FFDD00"/>
<defs>
<filter id="filter0_d" x="0" y="0" width="40" height="40" filterUnits="userSpaceOnUse" color-interpolation-filters="sRGB">
<feFlood flood-opacity="0" result="BackgroundImageFix"/>
<feColorMatrix in="SourceAlpha" type="matrix" values="0 0 0 0 0 0 0 0 0 0 0 0 0 0 0 0 0 0 127 0"/>
<feOffset/>
<feGaussianBlur stdDeviation="10.5"/>
<feColorMatrix type="matrix" values="0 0 0 0 1 0 0 0 0 0.86802 0 0 0 0 0 0 0 0 0.5 0"/>
<feBlend mode="normal" in2="BackgroundImageFix" result="effect1_dropShadow"/>
<feBlend mode="normal" in="SourceGraphic" in2="effect1_dropShadow" result="shape"/>
</filter>
</defs>
</svg>
