<svg width="16" height="16" viewBox="0 0 16 16" fill="none" xmlns="http://www.w3.org/2000/svg">
<path d="M15.6413 12.6446L13.1703 10.1734C12.6782 9.6832 11.8631 9.69809 11.3538 10.2076L10.109 11.4522C10.0303 11.4088 9.9489 11.3636 9.86331 11.3155C9.07718 10.8799 8.00124 10.2829 6.86903 9.14989C5.73346 8.01446 5.13589 6.93686 4.69898 6.15023C4.65287 6.06689 4.6087 5.98654 4.56507 5.91024L5.40057 5.07598L5.81133 4.66472C6.32142 4.15449 6.33549 3.33968 5.84447 2.84806L3.37352 0.376566C2.8825 -0.11436 2.0671 -0.099467 1.557 0.410765L0.860607 1.11116L0.879637 1.13005C0.646126 1.42801 0.450997 1.77166 0.305787 2.14224C0.171932 2.49499 0.0885941 2.83161 0.0504876 3.16891C-0.275785 5.87379 0.960263 8.34584 4.31474 11.7004C8.95164 16.3369 12.6884 15.9867 12.8496 15.9696C13.2007 15.9276 13.5372 15.8437 13.8791 15.7109C14.2465 15.5674 14.5899 15.3726 14.8877 15.1396L14.9029 15.1531L15.6084 14.4622C16.1174 13.9521 16.1321 13.137 15.6413 12.6446Z" fill="#FFDD00"/>
</svg>
