<svg width="180" height="9" viewBox="0 0 180 9" fill="none" xmlns="http://www.w3.org/2000/svg">
<path d="M124 2L130.873 7L137.745 2M137.745 2L144.618 7L151.491 2L158.364 7L165.236 2M137.745 2L144.455 7L151.164 2L157.873 7L164.582 2L171.291 7L178 2" stroke="#FFDD00" stroke-width="3" stroke-linecap="round" stroke-linejoin="round"/>
<path d="M56 2L62.8727 7L69.7455 2M69.7455 2L76.6182 7L83.4909 2L90.3636 7L97.2364 2M69.7455 2L76.4545 7L83.1636 2L89.8727 7L96.5818 2L103.291 7L110 2" stroke="#FFDD00" stroke-width="3" stroke-linecap="round" stroke-linejoin="round"/>
<path d="M110 2L116.873 7L123.745 2M123.745 2L130.618 7L137.491 2L144.364 7L151.236 2M123.745 2L130.455 7L137.164 2L143.873 7L150.582 2L157.291 7L164 2" stroke="#FFDD00" stroke-width="3" stroke-linecap="round" stroke-linejoin="round"/>
<path d="M2 2L8.87273 7L15.7455 2M15.7455 2L22.6182 7L29.4909 2L36.3636 7L43.2364 2M15.7455 2L22.4545 7L29.1636 2L35.8727 7L42.5818 2L49.2909 7L56 2" stroke="#FFDD00" stroke-width="3" stroke-linecap="round" stroke-linejoin="round"/>
</svg>
