<svg width="49" height="64" viewBox="0 0 49 64" fill="none" xmlns="http://www.w3.org/2000/svg">
<path d="M45.16 61V64H48.16V61H45.16ZM45.16 49H48.16V46H45.16V49ZM33.08 49H30.08V52H33.08V49ZM33.08 3.8H36.08V0.799997H33.08V3.8ZM20.36 3.8V0.799997H19.1734L18.3078 1.61174L20.36 3.8ZM4.92 18.28L2.8678 16.0917L0.682616 18.1411L2.72886 20.3291L4.92 18.28ZM13 26.92L10.8089 28.9691L12.8269 31.1271L15.0154 29.1422L13 26.92ZM16.44 23.8L18.4554 26.0222L18.4652 26.0133L18.4748 26.0044L16.44 23.8ZM18.68 20.76V17.76H16.7605L15.9561 19.5028L18.68 20.76ZM18.84 20.76L21.8395 20.8145L21.895 17.76H18.84V20.76ZM18.76 25.16L15.7605 25.1055L15.76 25.1327V25.16H18.76ZM18.76 49V52H21.76V49H18.76ZM6.76 49V46H3.76V49H6.76ZM6.76 61H3.76V64H6.76V61ZM48.16 61V49H42.16V61H48.16ZM45.16 46H33.08V52H45.16V46ZM36.08 49V3.8H30.08V49H36.08ZM33.08 0.799997H20.36V6.8H33.08V0.799997ZM18.3078 1.61174L2.8678 16.0917L6.9722 20.4683L22.4122 5.98826L18.3078 1.61174ZM2.72886 20.3291L10.8089 28.9691L15.1911 24.8709L7.11114 16.2309L2.72886 20.3291ZM15.0154 29.1422L18.4554 26.0222L14.4246 21.5778L10.9846 24.6978L15.0154 29.1422ZM18.4748 26.0044C19.8083 24.7735 20.7608 23.4104 21.4039 22.0172L15.9561 19.5028C15.6392 20.1896 15.1517 20.9065 14.4052 21.5956L18.4748 26.0044ZM18.68 23.76H18.84V17.76H18.68V23.76ZM15.8405 20.7055L15.7605 25.1055L21.7595 25.2145L21.8395 20.8145L15.8405 20.7055ZM15.76 25.16V49H21.76V25.16H15.76ZM18.76 46H6.76V52H18.76V46ZM3.76 49V61H9.76V49H3.76ZM6.76 64H45.16V58H6.76V64Z" fill="#C4C4C4" fill-opacity="0.3"/>
</svg>
