<svg width="129" height="92" viewBox="0 0 129 92" fill="none" xmlns="http://www.w3.org/2000/svg">
<path d="M1.44103 49.4244C1.44103 49.4244 1.77103 49.1528 2.54251 48.6377C3.24041 48.1632 4.23041 47.3484 5.59052 46.5087C6.91274 45.6003 8.64075 44.5577 10.5516 43.3246C11.5081 42.7971 12.6118 42.1884 13.6776 41.511C14.7813 40.9023 15.9965 40.3218 17.2473 39.632C19.7512 38.4303 22.4759 37.1069 25.4257 36.0178C28.4112 34.8194 31.584 33.7865 34.9061 32.8505C38.2282 31.9145 41.6998 31.0754 45.3585 30.4018C48.9058 29.7001 52.6047 29.2733 56.2679 28.9557C59.9311 28.6381 63.6344 28.5673 67.2285 28.6463C70.8225 28.7254 74.3452 29.023 77.7586 29.4705C79.4285 29.7146 81.0984 29.9586 82.7327 30.3119C84.329 30.5966 85.8897 30.9905 87.4124 31.3157C88.9352 31.6409 90.3487 32.1159 91.7979 32.4817C93.2114 32.9568 94.5134 33.4037 95.8154 33.8506C97.0439 34.3381 98.308 34.7164 99.3893 35.285C100.506 35.7444 101.55 36.2444 102.555 36.6756C103.487 37.1474 104.419 37.6192 105.239 38.0629C106.06 38.5066 106.807 38.9908 107.478 39.3377C108.149 39.6845 108.746 40.0719 109.232 40.4312C109.718 40.7905 110.166 41.081 110.465 41.2747C111.101 41.7308 111.511 41.9527 111.511 41.9527C111.847 42.2151 111.89 42.6398 111.636 43.0489C111.417 43.3486 111.011 43.4828 110.639 43.3297C110.639 43.3297 110.267 43.1765 109.484 42.8016C108.739 42.4953 107.658 41.9267 106.207 41.3829C105.462 41.0766 104.717 40.7704 103.861 40.436C103.005 40.1016 102.038 39.7391 101.07 39.3766C99.0969 38.5828 96.7916 37.8826 94.299 37.0169C93.0349 36.6387 91.7708 36.2605 90.3952 35.8541C89.0575 35.5165 87.644 35.0414 86.1591 34.7849C83.2607 34.0534 80.1416 33.4436 76.8754 32.9149C76.0594 32.8272 75.2055 32.6709 74.3894 32.5832C73.5734 32.4955 72.7195 32.3392 71.8299 32.2921C71.0139 32.2044 70.1243 32.1573 69.2704 32.001C68.3808 31.9539 67.5648 31.8662 66.6752 31.8191C63.1905 31.5902 59.5964 31.5112 56.0425 31.6789C52.4885 31.8465 48.861 32.0548 45.3494 32.6472C41.7999 33.1709 38.3997 33.7915 35.0397 34.6588C34.1902 34.8584 33.3786 35.1268 32.6027 35.2858C31.7911 35.5542 31.0152 35.7132 30.2037 35.9816C28.6541 36.4777 27.1045 36.9739 25.7043 37.5668C22.7544 38.656 20.0655 39.8701 17.5237 41.003C16.3085 41.5836 15.1312 42.2328 14.0275 42.8415C12.9238 43.4502 11.8937 44.0183 10.9751 44.6145C10.0565 45.2107 9.09993 45.7383 8.32845 46.2533C7.55697 46.7684 6.78549 47.2835 6.16118 47.7174C4.83896 48.6259 3.81106 49.372 3.15106 49.9152C2.49106 50.4584 2.04958 50.7019 2.04958 50.7019C1.71958 50.9735 1.2001 50.9015 0.937039 50.5985C1.00619 50.2019 1.03745 49.7366 1.44103 49.4244C1.36745 49.465 1.44103 49.4244 1.44103 49.4244Z" fill="#E6E6E6"/>
<path d="M116.162 37.7811C116.502 38.5615 116.801 39.2678 117.14 40.0482C117.55 40.7903 117.848 41.4966 118.258 42.2387C119.035 43.6487 119.923 45.0945 120.91 46.3894C121.388 47.0931 121.896 47.6843 122.375 48.388C122.882 48.9791 123.431 49.6445 123.938 50.2357C125.063 51.4538 126.148 52.5978 127.302 53.7034C127.879 54.2562 127.94 55.1901 127.437 55.758C127.2 55.9856 126.922 56.1391 126.672 56.18L126.422 56.2209L124.356 56.5863C123.677 56.6706 122.997 56.7549 122.248 56.8775C121.569 56.9618 120.89 57.0461 120.211 57.1304L118.173 57.3832C116.814 57.5518 115.415 57.6462 114.015 57.7405C112.575 57.7607 111.204 57.7425 109.751 57.5758C109.28 57.545 108.924 57.0639 108.969 56.652C108.986 56.3526 109.113 56.0891 109.321 55.974C109.947 55.6287 110.655 55.4319 111.322 55.1608C111.989 54.8897 112.697 54.6929 113.336 54.5344C114.682 54.179 116.069 53.8979 117.497 53.691C118.856 53.5224 120.325 53.3897 121.724 53.2953C123.124 53.2009 124.564 53.1808 126.005 53.1606L125.195 55.6398C124.646 54.9744 124.167 54.2707 123.619 53.6053C123.14 52.9016 122.661 52.1979 122.183 51.4941C121.704 50.7904 121.225 50.0867 120.746 49.3829C120.267 48.6792 119.858 47.9371 119.379 47.2334C118.9 46.5296 118.491 45.7876 118.082 45.0455L116.854 42.8192C116.445 42.0771 115.966 41.3733 115.626 40.5929L114.399 38.3666C114.194 37.9956 114.448 37.4685 114.795 37.2767C115.405 37.2308 115.917 37.3358 116.162 37.7811Z" fill="#E6E6E6"/>
</svg>
