<svg width="29" height="29" viewBox="0 0 29 29" fill="none" xmlns="http://www.w3.org/2000/svg">
<path d="M20.524 9.51068C20.5233 9.51068 20.5227 9.51068 20.522 9.51068C20.2805 9.50955 20.0855 9.31329 20.0864 9.07178C20.0868 8.94569 20.1168 5.96085 21.8139 3.89726C21.9674 3.71058 22.2433 3.68373 22.43 3.83728C22.6167 3.99078 22.6435 4.26656 22.49 4.4533C20.9941 6.27215 20.9618 9.04753 20.9616 9.0754C20.9603 9.31612 20.7646 9.51068 20.524 9.51068Z" fill="#333E40"/>
<path d="M24.1101 10.2451C24.1094 10.2451 24.1088 10.2451 24.1081 10.2451C23.8666 10.244 23.6716 10.0477 23.6725 9.80622C23.6729 9.68013 23.7029 6.69529 25.4001 4.6317C25.5536 4.44501 25.8294 4.41816 26.0161 4.57172C26.2028 4.72521 26.2296 5.001 26.0761 5.18774C24.5802 7.00658 24.548 9.78198 24.5477 9.80984C24.5464 10.0506 24.3507 10.2451 24.1101 10.2451Z" fill="#333E40"/>
<path d="M0.182836 16.8849C-0.0609453 16.9317 -0.0609453 17.2806 0.182836 17.3274L3.77096 18.4533V15.7583L0.182836 16.8849Z" fill="#333E40"/>
<path d="M11.6209 4.83455C11.0318 6.77514 12.0104 8.79037 13.8066 9.33569C15.6029 9.88101 17.5367 8.74993 18.1258 6.80934C18.7149 4.86875 17.7364 2.85352 15.9401 2.3082C14.1438 1.76288 12.21 2.89396 11.6209 4.83455Z" fill="#D9D9D9"/>
<path d="M13.4904 8.4188C13.4635 8.4188 13.4363 8.41637 13.409 8.41115C13.1716 8.36641 13.0153 8.13798 13.0599 7.9006C13.0795 7.79604 13.5579 5.32209 15.0798 3.83374C15.2526 3.66473 15.5297 3.66784 15.6986 3.84065C15.8676 4.01341 15.8645 4.29055 15.6917 4.45951C14.3698 5.75233 13.9243 8.03942 13.92 8.06236C13.8802 8.27233 13.6966 8.4188 13.4904 8.4188Z" fill="#F0F0F0"/>
<path d="M12.0529 5.69537C11.3798 3.47828 9.17053 2.18604 7.11828 2.80907C5.06604 3.4321 3.948 5.73447 4.62108 7.95155C5.29415 10.1686 7.50345 11.4609 9.5557 10.8378C11.6079 10.2148 12.726 7.91245 12.0529 5.69537Z" fill="#F0F0F0"/>
<path d="M9.91678 9.72846C9.71044 9.72846 9.52675 9.58187 9.48728 9.37168C9.48189 9.34336 8.96964 6.7132 7.4455 5.22253C7.27274 5.05357 7.26963 4.77643 7.43859 4.60367C7.60755 4.43103 7.88463 4.42769 8.05744 4.59676C9.7822 6.28363 10.3251 9.09125 10.3474 9.20997C10.3919 9.44752 10.2355 9.67618 9.99795 9.72076C9.9707 9.72597 9.94351 9.72846 9.91678 9.72846Z" fill="#D9D9D9"/>
<path d="M11.2694 19.2906V14.028L13.5782 9.51241L13.0777 7.68909C11.3977 8.00344 9.84588 8.55484 8.49251 9.2906L6.10811 10.9604L4.75066 15.2163V19.2566L6.41425 23.0931L8.49245 24.9216C9.84582 25.6574 11.3976 26.2088 13.0776 26.5231L13.9176 24.5191L11.2694 19.2906Z" fill="#FFCE1C"/>
<path d="M13.7638 24.8861C13.533 24.8524 13.3039 24.8152 13.0776 24.7727C11.3976 24.4583 9.84581 23.9069 8.49244 23.1712C7.30729 22.5265 6.27445 21.7396 5.43945 20.8452L6.41424 23.0932L8.49244 24.9217C8.57706 24.9677 8.66236 25.0129 8.74845 25.0575C9.00685 25.1911 9.27198 25.3181 9.54352 25.4381C10.2746 25.7614 11.0591 26.035 11.8427 26.2439C12.2455 26.3513 12.6575 26.4447 13.0776 26.5233L13.7638 24.8861Z" fill="#FAA330"/>
<path d="M6.05393 17.1059C6.05393 20.0187 6.95712 22.716 8.49254 24.9217C5.23734 23.151 3.12714 20.3096 3.12714 17.1059C3.12714 13.9027 5.23734 11.0608 8.49254 9.29071C6.95712 11.4964 6.05393 14.1937 6.05393 17.1059Z" fill="#3B484A"/>
<path d="M27.628 21.605C26.2161 23.755 23.7956 25.4315 20.7465 26.2581C19.3954 26.6245 17.921 26.8241 16.3563 26.8241C15.2248 26.8241 14.1261 26.7199 13.0776 26.5233C10.7602 24.0905 9.33194 20.7685 9.33194 17.106C9.33194 13.4439 10.7602 10.122 13.0776 7.68924C14.126 7.49253 15.2248 7.38837 16.3563 7.38837C19.9223 7.38837 23.0189 8.42444 25.255 10.1097C25.9141 10.6067 26.4989 11.1593 26.9982 11.7587L27.628 21.605Z" fill="#3B484A"/>
<path d="M20.7464 24.5075C19.3954 24.874 17.9209 25.0736 16.3562 25.0736C15.2247 25.0736 14.126 24.9693 13.0776 24.7727C12.5048 24.6655 11.9473 24.5301 11.4071 24.37C11.8924 25.1451 12.4523 25.8667 13.0776 26.5232C13.2086 26.5478 13.3404 26.571 13.4731 26.5926C15.8813 26.9862 18.3877 26.8978 20.7464 26.258C23.2275 25.5851 25.6103 24.2504 27.2045 22.1968C27.3543 22.0039 27.4956 21.8065 27.6279 21.6049L27.5256 20.0058C26.1008 22.083 23.7236 23.7005 20.7464 24.5075Z" fill="#333E40"/>
<path d="M28.9998 17.1059C29.0122 18.701 28.5042 20.278 27.6279 21.6049C24.2188 26.7678 16.1601 26.4505 13.3216 20.6543C12.7831 19.5549 12.4928 18.3579 12.4928 17.1059C12.4928 15.3691 13.0517 13.7383 14.0563 12.327C16.0108 9.57984 19.9714 9.17481 22.3831 11.5303C22.4211 11.5678 22.4591 11.6053 22.4966 11.6439C22.5347 11.6053 22.5727 11.5678 22.6102 11.5303C22.6178 11.5227 22.6254 11.5156 22.633 11.5081C23.8793 10.3058 25.8893 10.4287 26.9981 11.7587C28.2495 13.2597 28.9844 15.1357 28.9998 17.1059Z" fill="#FFCE1C"/>
<path d="M28.9954 16.9044C28.9885 16.6934 28.9731 16.4827 28.9498 16.2729C28.8026 17.5484 28.3356 18.7829 27.6279 19.8545C26.2161 22.0045 23.7956 23.681 20.7464 24.5076C20.0244 24.7034 19.2668 24.8511 18.4792 24.9466C21.7694 25.8552 25.5567 24.7417 27.6279 21.605C28.4244 20.3988 28.9143 18.9844 28.9895 17.5382C29.0004 17.3307 29.0022 17.1175 28.9954 16.9044Z" fill="#FAA330"/>
<path d="M3.18036 16.2306C3.17034 16.3132 3.1619 16.3961 3.15476 16.4793C3.15227 16.5082 3.15035 16.5372 3.14819 16.5661C3.08306 17.4353 3.17634 18.3121 3.42001 19.1489C3.90757 20.823 4.97089 22.274 6.28099 23.404C6.9366 23.9693 7.67882 24.479 8.49263 24.9216C7.92005 24.0992 7.43549 23.2082 7.05283 22.2632C4.89391 20.6939 3.46617 18.5832 3.18036 16.2306Z" fill="#333E40"/>
<path d="M18.3757 18.1165C18.134 18.1165 17.9381 17.9205 17.9381 17.6789V16.932C17.9381 16.6903 18.134 16.4944 18.3757 16.4944C18.6175 16.4944 18.8134 16.6903 18.8134 16.932V17.6789C18.8134 17.9205 18.6175 18.1165 18.3757 18.1165Z" fill="#3B484A"/>
<path d="M26.6296 18.1165C26.3878 18.1165 26.192 17.9205 26.192 17.6789V16.932C26.192 16.6903 26.3878 16.4944 26.6296 16.4944C26.8713 16.4944 27.0672 16.6903 27.0672 16.932V17.6789C27.0672 17.9205 26.8713 18.1165 26.6296 18.1165Z" fill="#3B484A"/>
<path d="M22.5027 18.5151C21.9794 18.5151 21.488 18.2963 21.1546 17.9149C20.9955 17.7329 21.0141 17.4564 21.1961 17.2974C21.378 17.1384 21.6546 17.1569 21.8135 17.3389C21.9808 17.5302 22.232 17.6399 22.5026 17.6399C22.7734 17.6399 23.0245 17.5302 23.1917 17.3389C23.3508 17.1569 23.6273 17.1382 23.8092 17.2974C23.9912 17.4564 24.0098 17.7329 23.8507 17.9149C23.5173 18.2963 23.0261 18.5151 22.5027 18.5151Z" fill="#3B484A"/>
<path d="M22.152 5.20599C22.7212 5.20599 23.1826 4.74459 23.1826 4.17541C23.1826 3.60624 22.7212 3.14484 22.152 3.14484C21.5829 3.14484 21.1215 3.60624 21.1215 4.17541C21.1215 4.74459 21.5829 5.20599 22.152 5.20599Z" fill="#FFCE1C"/>
<path d="M23.1397 3.88484C23.0264 4.26558 22.6975 4.56271 22.2781 4.61442C21.7698 4.67713 21.3035 4.35784 21.1642 3.88184C21.1249 4.01387 21.1111 4.15581 21.129 4.30126C21.1988 4.86613 21.7132 5.2676 22.2781 5.19794C22.8429 5.12821 23.2444 4.6138 23.1747 4.04887C23.1678 3.99234 23.1552 3.93791 23.1397 3.88484Z" fill="#FAA330"/>
<path d="M25.7382 5.94C26.3074 5.94 26.7688 5.47859 26.7688 4.90942C26.7688 4.34025 26.3074 3.87885 25.7382 3.87885C25.169 3.87885 24.7076 4.34025 24.7076 4.90942C24.7076 5.47859 25.169 5.94 25.7382 5.94Z" fill="#FFCE1C"/>
<path d="M26.7257 4.6194C26.6125 5.00013 26.2836 5.29727 25.8642 5.34898C25.3559 5.41168 24.8896 5.0924 24.7502 4.61639C24.711 4.74842 24.6972 4.89036 24.7151 5.03582C24.7848 5.60069 25.2992 6.00216 25.8641 5.93249C26.429 5.86277 26.8305 5.34836 26.7608 4.78343C26.7539 4.72684 26.7413 4.67241 26.7257 4.6194Z" fill="#FAA330"/>
</svg>
