<svg width="36" height="36" viewBox="0 0 36 36" fill="none" xmlns="http://www.w3.org/2000/svg">
<g clip-path="url(#clip0)">
<path d="M32.0212 4.01583C26.6666 -1.33869 17.9854 -1.33869 12.6309 4.01583C7.27636 9.37036 7.27636 18.0516 12.6309 23.4061C17.9854 28.7606 26.6666 28.7606 32.0212 23.4061C37.3757 18.0516 37.3757 9.37036 32.0212 4.01583Z" fill="#FF4B00"/>
<path d="M32.0215 23.4061C26.6667 28.7609 17.986 28.7609 12.6312 23.4061L32.0215 4.01556C37.3763 9.37036 37.3763 18.0513 32.0215 23.4061Z" fill="#D03B00"/>
<path d="M30.53 21.9144C26.0105 26.4339 18.6421 26.4339 14.1226 21.9144C9.60332 17.3948 9.60304 10.0268 14.1226 5.50722C18.6421 0.987666 26.0105 0.987666 30.53 5.50722C35.0493 10.0268 35.0496 17.3951 30.53 21.9144Z" fill="#FFD400"/>
<path d="M30.53 21.9144C26.0105 26.434 18.6421 26.434 14.1226 21.9144L30.53 5.50726C35.0496 10.0268 35.0496 17.3952 30.53 21.9144Z" fill="#FDBF00"/>
<path d="M27.5469 18.9313C24.6682 21.8101 19.9847 21.8101 17.1059 18.9313C14.2272 16.0526 14.2272 11.3691 17.1059 8.49034C19.9847 5.61162 24.6682 5.61162 27.5469 8.49034C30.4256 11.3691 30.4256 16.0526 27.5469 18.9313Z" fill="#FF9F00"/>
<path d="M27.5469 18.9313C24.6682 21.8101 19.9847 21.8101 17.106 18.9313L27.5469 8.49036C30.4257 11.3691 30.4257 16.0526 27.5469 18.9313Z" fill="#FF7816"/>
<path d="M26.0553 17.4399C23.997 19.4982 20.6558 19.4982 18.5974 17.4399C16.5391 15.3816 16.5391 12.0403 18.5974 9.98203C20.6558 7.92372 23.997 7.92372 26.0553 9.98203C28.1136 12.0403 28.1136 15.3813 26.0553 17.4399Z" fill="#FF4B00"/>
<path d="M26.0553 17.4399C23.997 19.4982 20.6557 19.4982 18.5974 17.4399L26.0553 9.98199C28.1136 12.0403 28.1136 15.3813 26.0553 17.4399Z" fill="#D03B00"/>
<path d="M23.0722 14.4565L17.8517 19.677C17.4339 20.0948 16.7777 20.0948 16.36 19.677C15.9425 19.2595 15.9425 18.6031 16.36 18.1856L21.5805 12.9651C21.9982 12.5474 22.6544 12.5474 23.0722 12.9651C23.4897 13.3829 23.4897 14.039 23.0722 14.4565Z" fill="#E2E2E7"/>
<path d="M16.36 19.6773L23.0722 12.9651C23.4897 13.3828 23.4897 14.039 23.0722 14.4568L17.8517 19.6773C17.4339 20.0948 16.7777 20.0948 16.36 19.6773Z" fill="#BABAC0"/>
<path d="M17.7026 22.5112L14.8535 22.6453L14.5105 21.5266L13.556 18.3644C16.1513 16.5747 18.6719 16.1122 18.7018 16.1421C19.0449 16.0974 19.358 16.2317 19.5818 16.4552C19.8057 16.6791 19.9397 16.9922 19.8949 17.3355C19.6118 17.9769 19.4926 19.9756 17.7026 22.5112Z" fill="#4A696F"/>
<path d="M14.8534 22.6453L14.5104 21.5266L19.5817 16.4555C19.8056 16.6791 19.9396 16.9925 19.8948 17.3355C19.6117 17.9769 19.4922 19.9756 17.7025 22.5112L14.8534 22.6453Z" fill="#3E5959"/>
<path d="M16.0916 24.4204C15.7782 24.7336 9.43711 29.6159 9.43711 29.6159H6.45374V26.6328C6.45374 26.6328 11.3037 20.2588 11.6168 19.9457C11.7064 19.8561 11.8107 19.7817 11.9003 19.6922C12.4372 19.1849 13.0041 18.7374 13.5559 18.3644L17.7025 22.511C17.3295 23.0331 16.8821 23.5701 16.3451 24.137C16.2556 24.2265 16.196 24.3158 16.0916 24.4204Z" fill="#B9DD39"/>
<path d="M16.0916 24.4204C15.7782 24.7335 9.43711 29.6159 9.43711 29.6159H6.45374L15.6142 20.4227L17.7025 22.511C17.3295 23.0331 16.8821 23.5701 16.3451 24.137C16.2556 24.2265 16.196 24.3158 16.0916 24.4204Z" fill="#93BF00"/>
<path d="M7.94547 35.9999C6.06596 35.9999 4.858 34.046 5.05191 32.1816L5.21588 30.8541L3.88844 31.0181C2.02377 31.242 0.0698242 29.9741 0.0698242 28.1245C0.0698242 26.3645 1.80019 25.0816 3.50062 25.6485L6.45378 26.6329L9.43688 29.616L10.4215 32.5691C10.9884 34.2698 9.72033 35.9851 7.94547 35.9999Z" fill="#4A696F"/>
<path d="M7.94542 35.9999C6.06591 35.9999 4.85795 34.0459 5.05186 32.1815L5.21583 30.8541L7.94542 28.1245L9.4371 29.6159L10.4215 32.5694C10.9884 34.2698 9.72028 35.9851 7.94542 35.9999Z" fill="#3E5959"/>
</g>
<defs>
<clipPath id="clip0">
<rect width="36" height="36" fill="white"/>
</clipPath>
</defs>
</svg>
