<svg width="143" height="135" viewBox="0 0 143 135" fill="none" xmlns="http://www.w3.org/2000/svg">
<circle r="8.5" transform="matrix(-1 0 0 1 10.5 33.5)" fill="#5092E0"/>
<circle r="57.5" transform="matrix(-1 0 0 1 76.5 77.5)" fill="#5092E0"/>
<circle r="30.5" transform="matrix(-0.770967 0.636876 0.636876 0.770967 42.9392 76.9392)" fill="#5092E0"/>
<ellipse rx="31" ry="31.5" transform="matrix(-0.770967 0.636876 0.636876 0.770967 55.9615 44.0286)" fill="#5092E0"/>
<path d="M128.862 70.1756V100.065C128.862 103.914 125.742 107.035 121.893 107.035H92.1034L77.9655 122.586V107.035H67.9686C64.1202 107.035 61 103.914 61 100.066V70.177C61 66.3273 64.1202 63.207 67.9686 63.207H121.892C125.742 63.207 128.862 66.3273 128.862 70.1756Z" fill="#9DD0F6"/>
<path d="M136.031 43.4138H82.1065C78.2582 43.4138 75.1379 46.5341 75.1379 50.3838V63.2069H121.893C125.742 63.2069 128.862 66.3272 128.862 70.1769V87.2414H136.031C139.88 87.2414 143 84.1212 143 80.2714V50.3838C143 46.5341 139.88 43.4138 136.031 43.4138Z" fill="#3376B8"/>
<path d="M96.3448 78.7797H76.5517C75.7699 78.7797 75.1379 78.1464 75.1379 77.3659C75.1379 76.5855 75.7699 75.9521 76.5517 75.9521H96.3448C97.1267 75.9521 97.7586 76.5855 97.7586 77.3659C97.7586 78.1464 97.1267 78.7797 96.3448 78.7797Z" fill="white"/>
<path d="M114.724 87.2626H76.5517C75.7699 87.2626 75.1379 86.6293 75.1379 85.8489C75.1379 85.0684 75.7699 84.4351 76.5517 84.4351H114.724C115.506 84.4351 116.138 85.0684 116.138 85.8489C116.138 86.6293 115.506 87.2626 114.724 87.2626Z" fill="white"/>
<path d="M114.724 95.7453H76.5517C75.7699 95.7453 75.1379 95.1119 75.1379 94.3315C75.1379 93.5511 75.7699 92.9177 76.5517 92.9177H114.724C115.506 92.9177 116.138 93.5511 116.138 94.3315C116.138 95.1119 115.506 95.7453 114.724 95.7453Z" fill="white"/>
</svg>
