<svg width="137" height="134" viewBox="0 0 137 134" fill="none" xmlns="http://www.w3.org/2000/svg">
<path d="M8 76.5C8 108.256 33.7436 134 65.5 134C97.2564 134 123 108.256 123 76.5C123 44.7436 97.2564 19 65.5 19C33.7436 19 8 44.7436 8 76.5Z" fill="#A8D32A"/>
<circle r="30.5" transform="matrix(-1 0 0 1 35.5 57.5)" fill="#A8D32A"/>
<circle r="6" transform="matrix(-1 0 0 1 88 42)" fill="#A8D32A"/>
<ellipse rx="31" ry="31.5" transform="matrix(-1 0 0 1 58 31.5)" fill="#A8D32A"/>
<circle r="8.5" transform="matrix(-1 0 0 1 8.5 11.5)" fill="#A8D32A"/>
<path d="M123.016 60.6304C122.245 50.4311 113.725 42.3955 103.328 42.3955C92.9318 42.3955 84.4118 50.4311 83.6405 60.6304C76.0044 63.3587 70.5392 70.6547 70.5392 79.2285C70.5392 90.1334 79.3795 98.9734 90.2842 98.9734C95.2844 98.9734 99.8496 97.1138 103.328 94.0498C106.807 97.1138 111.373 98.9734 116.373 98.9734C127.278 98.9734 136.118 90.1332 136.118 79.2285C136.118 70.6547 130.653 63.3587 123.016 60.6304Z" fill="#C3EA21"/>
<path d="M123.016 60.6304C122.245 50.4311 113.725 42.3955 103.328 42.3955C103.328 52.2382 103.328 81.1932 103.328 94.0498C106.807 97.1138 111.373 98.9734 116.373 98.9734C127.278 98.9734 136.118 90.1332 136.118 79.2285C136.118 70.6547 130.652 63.3587 123.016 60.6304Z" fill="#8ADB53"/>
<path d="M115.256 72.9922L112.829 68.3766L105.936 72.0011V64.3818H100.721V81.4624L93.8277 77.8379L91.4007 82.4535L100.721 87.3541V116H105.936V77.8928L115.256 72.9922Z" fill="#BA7400"/>
<path d="M68.5284 91.7804C56.7354 91.7804 47.6004 81.4619 49.0299 69.7558L52.5207 41.1715C53.5088 33.0814 60.3779 27 68.5284 27C76.6789 27 83.5478 33.0814 84.5359 41.1715L88.0267 69.7558C89.4564 81.4619 80.3214 91.7804 68.5284 91.7804Z" fill="#4FC16E"/>
<path d="M68.5284 91.7804C68.5284 78.6257 68.5284 37.2997 68.5284 27C76.6789 27 83.5479 33.0814 84.5359 41.1715L88.0267 69.7558C89.4565 81.4619 80.3214 91.7804 68.5284 91.7804Z" fill="#369151"/>
<path d="M78.0291 69.519L71.1358 73.1435V59.8974L80.456 54.997L78.0291 50.3814L71.1358 54.0059V46.3865H65.921V63.5746L59.0278 59.9503L56.6008 64.5658L65.921 69.4663V116H71.1358V79.0352L80.456 74.1347L78.0291 69.519Z" fill="#804D00"/>
</svg>
