<svg width="144" height="135" viewBox="0 0 144 135" fill="none" xmlns="http://www.w3.org/2000/svg">
<circle r="8.5" transform="matrix(-1 0 0 1 10.5 33.5)" fill="#FF4B00"/>
<circle r="57.5" transform="matrix(-1 0 0 1 76.5 77.5)" fill="#FF4B00"/>
<circle r="30.5" transform="matrix(-0.770967 0.636876 0.636876 0.770967 42.9392 76.9392)" fill="#FF4B00"/>
<ellipse rx="31" ry="31.5" transform="matrix(-0.770967 0.636876 0.636876 0.770967 55.9616 44.0286)" fill="#FF4B00"/>
<path d="M144 88.0891C144 97.293 142.622 106.333 140.062 113.519C138.389 118.195 134.008 121 128.348 121H119.046C114.37 121 110.187 117.998 108.562 113.519C106.003 106.332 104.625 97.293 104.625 88.0891C104.625 86.1202 104.724 84.2006 104.822 82.3303L115.601 86.2188H133.024L143.803 82.3303C143.901 84.2006 144 86.1202 144 88.0891Z" fill="#FEA832"/>
<path d="M144 88.0891C144 97.293 142.622 106.333 140.062 113.519C138.389 118.195 134.008 121 128.348 121H124.312V86.2188H133.024L143.803 82.3303C143.901 84.2006 144 86.1202 144 88.0891Z" fill="#FF8700"/>
<path d="M138.881 79.8694L142.622 85.5297C140.752 88.9258 137.109 91.1406 133.024 91.1406H115.601C111.516 91.1406 107.873 88.9258 106.003 85.5297L109.743 79.8694L105.019 79.968C105.757 71.8961 107.578 64.7595 110.187 59.1978C110.187 59.1486 110.187 59.1486 110.187 59.1486L116.24 61.8062L112.598 54.768C115.798 49.7967 119.834 46.8438 124.313 46.8438C128.791 46.8438 132.827 49.7967 136.027 54.768L132.286 61.6094L138.438 59.1484C138.438 59.1484 138.438 59.1484 138.438 59.1977C141.047 64.7594 142.868 71.8959 143.606 79.9678L138.881 79.8694Z" fill="#FEDBAB"/>
<path d="M138.881 79.8694L142.622 85.5297C140.752 88.9258 137.109 91.1406 133.024 91.1406H124.312V46.8438C128.791 46.8438 132.827 49.7967 136.027 54.768L132.286 61.6094L138.438 59.1484C138.438 59.1484 138.438 59.1484 138.438 59.1977C141.047 64.7594 142.868 71.8959 143.606 79.9678L138.881 79.8694Z" fill="#FEC478"/>
<path d="M143.803 82.3301V82.7241C143.557 83.7084 143.163 84.693 142.622 85.5295L124.313 70.6653L106.003 85.5295C105.462 84.693 105.068 83.7084 104.822 82.7241V82.3301C104.822 82.0841 104.871 81.7887 104.871 81.4936C104.92 81.0016 104.97 80.4598 105.019 79.9678L120.227 67.6139L110.187 59.1975C110.187 59.1483 110.187 59.1483 110.187 59.1483C110.925 57.5733 111.713 56.0967 112.598 54.7678L124.313 64.513L136.027 54.7678C136.913 56.0969 137.7 57.5733 138.438 59.1483C138.438 59.1483 138.438 59.1483 138.438 59.1975L128.398 67.6137L143.606 79.9676C143.656 80.4597 143.705 81.0014 143.754 81.4934C143.754 81.7887 143.803 82.0841 143.803 82.3301Z" fill="#FEA832"/>
<path d="M143.803 82.3301V82.7241C143.557 83.7084 143.163 84.693 142.622 85.5295L124.312 70.6653V64.513L136.027 54.7678C136.913 56.0969 137.7 57.5733 138.438 59.1483C138.438 59.1483 138.438 59.1483 138.438 59.1975L128.398 67.6137L143.606 79.9676C143.655 80.4597 143.705 81.0014 143.754 81.4934C143.754 81.7887 143.803 82.0841 143.803 82.3301Z" fill="#FF8700"/>
<path d="M99.375 78.2453C99.375 87.4492 97.9967 96.3249 95.4375 103.511C93.7641 108.187 89.3834 110.992 83.7234 110.992H74.4211C69.7453 110.992 65.5617 107.99 63.9375 103.511C61.3783 96.3249 60 87.4492 60 78.2453C60 76.2764 60.0986 74.3569 60.1967 72.4866L70.9756 76.375H88.3992L99.1781 72.4866C99.2764 74.3569 99.375 76.2764 99.375 78.2453Z" fill="#FEA832"/>
<path d="M99.375 78.2453C99.375 87.4492 97.9967 96.3249 95.4375 103.511C93.7641 108.187 89.3834 110.992 83.7234 110.992H79.6875V76.375H88.3994L99.1783 72.4866C99.2764 74.3569 99.375 76.2764 99.375 78.2453Z" fill="#FF8700"/>
<path d="M94.2564 70.0256L97.9967 75.6859C96.1267 79.082 92.4842 81.2969 88.3992 81.2969H70.9756C66.8906 81.2969 63.2483 79.082 61.3781 75.6859L65.1184 70.0256L60.3936 70.1242C61.1319 62.0522 62.953 54.9156 65.5617 49.3539C65.5617 49.3047 65.5617 49.3047 65.5617 49.3047L71.6156 51.9623L67.9734 44.9242C71.1728 39.953 75.2088 37 79.6875 37C84.1662 37 88.2022 39.953 91.4016 44.9242L87.6609 51.7656L93.8133 49.3047C93.8133 49.3047 93.8133 49.3047 93.8133 49.3539C96.422 54.9156 98.2431 62.0522 98.9812 70.1241L94.2564 70.0256Z" fill="#FEDBAB"/>
<path d="M94.2564 70.0256L97.9967 75.6859C96.1267 79.082 92.4842 81.2969 88.3992 81.2969H79.6875V37C84.1662 37 88.2022 39.953 91.4016 44.9242L87.6609 51.7656L93.8133 49.3047C93.8133 49.3047 93.8133 49.3047 93.8133 49.3539C96.422 54.9156 98.2431 62.0522 98.9813 70.1241L94.2564 70.0256Z" fill="#FEC478"/>
<path d="M99.1783 72.4864V72.8803C98.932 73.8647 98.5384 74.8492 97.9967 75.6858L79.6875 60.8216L61.3783 75.6858C60.8367 74.8492 60.4431 73.8647 60.1967 72.8803V72.4864C60.1967 72.2403 60.2459 71.945 60.2459 71.6499C60.2952 71.1578 60.3445 70.6161 60.3938 70.1241L75.6022 57.7702L65.5617 49.3538C65.5617 49.3045 65.5617 49.3045 65.5617 49.3045C66.3002 47.7295 67.0875 46.253 67.9734 44.9241L79.6875 54.6692L91.4016 44.9241C92.2875 46.2531 93.0748 47.7295 93.8133 49.3045C93.8133 49.3045 93.8133 49.3045 93.8133 49.3538L83.7728 57.77L98.9813 70.1239C99.0305 70.6159 99.0799 71.1577 99.1291 71.6497C99.1289 71.945 99.1783 72.2403 99.1783 72.4864Z" fill="#FEA832"/>
<path d="M99.1783 72.4864V72.8803C98.932 73.8647 98.5384 74.8492 97.9967 75.6858L79.6875 60.8216V54.6692L91.4016 44.9241C92.2875 46.2531 93.0748 47.7295 93.8133 49.3045C93.8133 49.3045 93.8133 49.3045 93.8133 49.3538L83.7728 57.77L98.9813 70.1239C99.0305 70.6159 99.0799 71.1577 99.1291 71.6497C99.1289 71.945 99.1783 72.2403 99.1783 72.4864Z" fill="#FF8700"/>
</svg>
