<svg width="133" height="141" viewBox="0 0 133 141" fill="none" xmlns="http://www.w3.org/2000/svg">
<circle r="8.5" transform="matrix(-1 0 0 1 44.5 8.5)" fill="#FCCD24"/>
<circle r="57.5" transform="matrix(-1 0 0 1 60.5001 83.5)" fill="#FCCD24"/>
<circle r="30.5" transform="matrix(-0.770967 0.636876 0.636876 0.770967 78.9392 51.9392)" fill="#FCCD24"/>
<ellipse rx="31" ry="31.5" transform="matrix(-0.770967 0.636876 0.636876 0.770967 43.9615 57.0286)" fill="#FCCD24"/>
<g clip-path="url(#clip0)">
<path d="M87.5 47C68.3158 47 52.7085 62.6073 52.7085 81.7915C52.7085 88.392 54.5657 94.8154 58.0787 100.369C61.4952 105.77 66.3218 110.126 72.035 112.965C72.4044 113.148 72.8098 113.244 73.2215 113.244H101.777C102.189 113.244 102.596 113.148 102.964 112.965C108.677 110.126 113.504 105.77 116.921 100.369C120.434 94.8154 122.292 88.392 122.292 81.7915C122.292 62.6073 106.684 47 87.5 47V47Z" fill="#FFD400"/>
<path d="M87.5 47V113.244H101.777C102.189 113.244 102.596 113.148 102.964 112.965C108.677 110.126 113.504 105.77 116.921 100.369C120.434 94.8161 122.292 88.392 122.292 81.7915C122.292 62.6073 106.684 47 87.5 47V47Z" fill="#FF9F04"/>
<path d="M93.2118 79.4615H81.7882C80.71 79.4615 79.7373 78.8124 79.3249 77.8161C78.9125 76.8198 79.1402 75.6729 79.9033 74.9106L85.6144 69.1988C86.6558 68.158 88.3436 68.1574 89.385 69.1988L95.0968 74.9099C95.8591 75.6729 96.0875 76.8191 95.6744 77.8161C95.262 78.8117 94.2893 79.4615 93.2118 79.4615Z" fill="#253F66"/>
<path d="M95.6744 77.8161C96.0868 76.8198 95.8591 75.6729 95.0961 74.9099L89.3843 69.1988C88.8642 68.6781 88.1818 68.4184 87.5 68.4177V79.4616H93.2111C94.2893 79.4616 95.262 78.8117 95.6744 77.8161Z" fill="#13233C"/>
<path d="M103.663 83.4766C103.163 82.976 102.485 82.6956 101.778 82.6956H73.2216C72.5148 82.6956 71.8365 82.976 71.3366 83.4766C70.8367 83.9765 70.5555 84.6548 70.5555 85.3616L70.5562 110.578C70.5562 112.05 71.7497 113.244 73.2223 113.244H101.778C103.25 113.244 104.444 112.05 104.444 110.578L104.444 85.3616C104.444 84.6541 104.163 83.9765 103.663 83.4766Z" fill="#008ADF"/>
<path d="M103.663 83.4766C103.163 82.976 102.485 82.6956 101.778 82.6956H87.5V113.244H101.778C103.25 113.244 104.444 112.05 104.444 110.578L104.444 85.3616C104.444 84.6541 104.163 83.9765 103.663 83.4766Z" fill="#0065A3"/>
<path d="M87.4993 113.244C86.0268 113.244 84.8333 112.05 84.8333 110.578V91.0732C84.8333 89.6007 86.0275 88.4072 87.4993 88.4072C88.9719 88.4072 90.1653 89.6007 90.1653 91.0732V110.578C90.1653 112.05 88.9719 113.244 87.4993 113.244Z" fill="#005183"/>
<path d="M103.663 83.4764L95.0961 74.9105C94.5962 74.4106 93.9186 74.1294 93.2118 74.1294H81.7882C81.0808 74.1294 80.4031 74.4106 79.9033 74.9105L71.3366 83.4764C70.5743 84.2387 70.3466 85.3857 70.759 86.382C71.1714 87.3782 72.1441 88.0274 73.2223 88.0274H101.778C102.856 88.0274 103.829 87.3782 104.241 86.382C104.653 85.3857 104.426 84.2387 103.663 83.4764Z" fill="#FDD1A3"/>
<path d="M44.666 84.4583C43.9641 84.4583 43.2761 84.1736 42.7804 83.6758C42.2847 83.1801 42 82.4921 42 81.7922C42 81.0903 42.2847 80.4023 42.7804 79.9066C43.2782 79.4102 43.9641 79.1262 44.666 79.1262C45.3679 79.1262 46.0539 79.4102 46.5517 79.9066C47.0474 80.4023 47.332 81.0903 47.332 81.7922C47.332 82.4921 47.0474 83.1801 46.5517 83.6758C46.0539 84.1736 45.3679 84.4583 44.666 84.4583Z" fill="#FF9100"/>
<path d="M130.334 84.4583C129.632 84.4583 128.946 84.1736 128.448 83.6758C127.953 83.1801 127.668 82.4921 127.668 81.7922C127.668 81.0903 127.953 80.4023 128.448 79.9066C128.946 79.4102 129.632 79.1262 130.334 79.1262C131.036 79.1262 131.723 79.4102 132.22 79.9066C132.715 80.4023 133 81.0903 133 81.7922C133 82.4921 132.715 83.1801 132.22 83.6758C131.722 84.1736 131.036 84.4583 130.334 84.4583Z" fill="#FF4B00"/>
<path d="M57.2123 54.1704C56.5104 54.1704 55.8223 53.8844 55.3266 53.388C54.8309 52.8923 54.5463 52.2042 54.5463 51.503C54.5463 50.8025 54.8309 50.1145 55.3266 49.6187C55.8223 49.1223 56.5104 48.8384 57.2123 48.8384C57.9142 48.8384 58.6008 49.1223 59.0965 49.6187C59.5943 50.1145 59.8783 50.8025 59.8783 51.503C59.8783 52.2042 59.5936 52.8923 59.0965 53.388C58.6001 53.8837 57.9142 54.1704 57.2123 54.1704Z" fill="#FF9100"/>
<path d="M117.788 114.746C117.088 114.746 116.4 114.461 115.903 113.965C115.408 113.469 115.122 112.782 115.122 112.08C115.122 111.378 115.408 110.691 115.903 110.194C116.4 109.698 117.086 109.414 117.788 109.414C118.49 109.414 119.178 109.698 119.673 110.194C120.169 110.691 120.454 111.378 120.454 112.08C120.454 112.782 120.169 113.469 119.673 113.965C119.178 114.461 118.49 114.746 117.788 114.746Z" fill="#FF4B00"/>
<path d="M117.788 54.1704C117.086 54.1704 116.4 53.8844 115.902 53.388C115.406 52.8923 115.122 52.2042 115.122 51.503C115.122 50.8025 115.406 50.1145 115.902 49.6187C116.398 49.1223 117.086 48.8384 117.788 48.8384C118.49 48.8384 119.178 49.1223 119.673 49.6187C120.169 50.1145 120.454 50.8025 120.454 51.503C120.454 52.2042 120.169 52.8923 119.673 53.388C119.176 53.8837 118.49 54.1704 117.788 54.1704Z" fill="#FF4B00"/>
<path d="M57.2123 114.746C56.5104 114.746 55.8223 114.461 55.3266 113.965C54.8309 113.468 54.5463 112.782 54.5463 112.08C54.5463 111.378 54.8309 110.691 55.3266 110.194C55.8223 109.698 56.5104 109.414 57.2123 109.414C57.9142 109.414 58.6008 109.698 59.0965 110.194C59.5943 110.691 59.8783 111.378 59.8783 112.08C59.8783 112.782 59.5936 113.469 59.0965 113.965C58.6001 114.461 57.9128 114.746 57.2123 114.746Z" fill="#FF9100"/>
<path d="M101.777 107.912H73.2222C72.5148 107.912 71.8372 108.193 71.3373 108.692C70.8367 109.193 70.5562 109.871 70.5562 110.578V121.057C70.5562 121.787 70.6076 122.545 70.709 123.307C70.8853 124.632 72.0156 125.622 73.3521 125.622H101.648C102.984 125.622 104.115 124.632 104.291 123.307C104.392 122.545 104.443 121.787 104.443 121.057V110.578C104.443 109.106 103.25 107.912 101.777 107.912Z" fill="#A8EBFA"/>
<path d="M101.777 107.912H87.5V125.622H101.648C102.984 125.622 104.115 124.632 104.291 123.308C104.392 122.545 104.443 121.788 104.443 121.057V110.578C104.443 109.106 103.25 107.912 101.777 107.912Z" fill="#76E2F8"/>
<path d="M103.654 121.199C103.147 120.622 102.416 120.29 101.648 120.29H73.3521C72.5835 120.29 71.8524 120.622 71.3463 121.199C70.8402 121.778 70.6076 122.545 70.709 123.307C71.8233 131.684 79.0416 138 87.5 138H87.5007H87.5014C95.9583 138 103.176 131.684 104.291 123.307C104.392 122.545 104.16 121.778 103.654 121.199Z" fill="#FF8398"/>
<path d="M103.654 121.199C103.147 120.622 102.416 120.29 101.648 120.29H87.5V138H87.5007H87.5014C95.9583 138 103.176 131.684 104.291 123.307C104.392 122.545 104.16 121.778 103.654 121.199Z" fill="#FF3F5C"/>
<path d="M104.241 86.3813C104.653 85.3857 104.426 84.2387 103.663 83.4757L95.0961 74.9098C94.5962 74.4099 93.9186 74.1294 93.2118 74.1294H87.5V88.0274H101.778C102.856 88.0274 103.829 87.3782 104.241 86.3813Z" fill="#F5A86C"/>
</g>
<defs>
<clipPath id="clip0">
<rect x="42" y="47" width="91" height="91" fill="white"/>
</clipPath>
</defs>
</svg>
