<svg width="119" height="141" viewBox="0 0 119 141" fill="none" xmlns="http://www.w3.org/2000/svg">
<circle r="8.5" transform="matrix(-1 0 0 1 41.5 8.5)" fill="#5ED0FF"/>
<circle r="57.5" transform="matrix(-1 0 0 1 57.5001 83.5)" fill="#5ED0FF"/>
<circle r="30.5" transform="matrix(-0.770967 0.636876 0.636876 0.770967 75.9393 51.9392)" fill="#5ED0FF"/>
<ellipse rx="31" ry="31.5" transform="matrix(-0.770967 0.636876 0.636876 0.770967 43.9615 54.0286)" fill="#5ED0FF"/>
<g clip-path="url(#clip0)">
<path d="M104.221 48H57.7785C50.181 48 44 54.181 44 61.779V108.222C44 115.819 50.181 122 57.7785 122H104.221C111.819 122 118 115.819 118 108.222V61.779C118 54.181 111.819 48 104.221 48Z" fill="#FEF4F5"/>
<path d="M104.221 48H81V122H104.221C111.819 122 118 115.819 118 108.222V61.779C118 54.181 111.819 48 104.221 48Z" fill="#D5EDED"/>
<path d="M65.9061 87.4763C58.9489 87.4763 53.2885 93.1367 53.2885 100.094C53.2885 107.051 58.9489 112.712 65.9061 112.712C72.8634 112.712 78.5238 107.051 78.5238 100.094C78.5238 93.1367 72.8634 87.4763 65.9061 87.4763Z" fill="#008ADF"/>
<path d="M76.3559 57.2883H55.4564C54.259 57.2883 53.2885 58.2594 53.2885 59.4563V80.3557C53.2885 81.5532 54.259 82.5237 55.4564 82.5237H76.3559C77.5528 82.5237 78.5238 81.5532 78.5238 80.3557V59.4563C78.5238 58.2588 77.5528 57.2883 76.3559 57.2883Z" fill="#FF4949"/>
<path d="M110.037 68.822L104.004 58.3723C103.617 57.7016 102.901 57.2883 102.127 57.2883H90.0603C89.2857 57.2883 88.5704 57.7016 88.1831 58.3723L82.1506 68.8226C81.7633 69.4933 81.7633 70.3193 82.1506 70.99L88.1831 81.4397C88.5704 82.1104 89.2857 82.5237 90.0603 82.5237H102.127C102.901 82.5237 103.617 82.1104 104.004 81.4397L110.037 70.99C110.425 70.3199 110.425 69.4933 110.037 68.822Z" fill="#54E360"/>
<path d="M108.605 97.5895C108.35 96.8047 107.672 96.2323 106.855 96.1137L100.762 95.2284L98.0377 89.708C97.6724 88.9679 96.9187 88.4993 96.0939 88.4993H96.0933C95.2679 88.4993 94.5147 88.9679 94.1495 89.708L91.4248 95.2284L85.3325 96.1137C84.5161 96.2323 83.8375 96.8047 83.5823 97.5895C83.3271 98.3743 83.54 99.2358 84.1311 99.8117L88.5393 104.109L87.4988 110.177C87.3593 110.99 87.6936 111.812 88.3614 112.297C89.0288 112.782 89.914 112.846 90.6446 112.463L96.0933 109.597L96.0939 109.598L101.544 112.463C101.86 112.629 102.207 112.712 102.552 112.712H102.559C103.755 112.709 104.723 111.739 104.723 110.544C104.723 110.377 104.705 110.215 104.669 110.059L103.648 104.109L108.057 99.8117C108.648 99.2358 108.861 98.3743 108.605 97.5895Z" fill="#FFD400"/>
<path d="M78.5238 100.094C78.5238 93.1367 72.8634 87.4763 65.9061 87.4763V112.712C72.8634 112.712 78.5238 107.051 78.5238 100.094Z" fill="#0065A3"/>
<path d="M76.3558 57.2883H65.9061V82.5237H76.3558C77.5527 82.5237 78.5238 81.5532 78.5238 80.3557V59.4563C78.5238 58.2588 77.5527 57.2883 76.3558 57.2883Z" fill="#E80048"/>
<path d="M104.004 81.4397L110.037 70.99C110.424 70.3193 110.424 69.4933 110.037 68.822L104.004 58.3723C103.617 57.7016 102.901 57.2883 102.127 57.2883H96.0939V82.5237H102.127C102.901 82.5237 103.617 82.1104 104.004 81.4397Z" fill="#00AB5E"/>
<path d="M101.543 112.463C101.86 112.629 102.207 112.712 102.552 112.712H102.558C103.754 112.71 104.723 111.74 104.723 110.544C104.723 110.377 104.704 110.215 104.669 110.059L103.649 104.109L108.057 99.8117C108.648 99.2358 108.861 98.3743 108.605 97.5895C108.35 96.8047 107.672 96.2328 106.856 96.1143L100.762 95.2284L98.0378 89.708C97.6725 88.9679 96.9193 88.4998 96.0945 88.4993V109.598L101.543 112.463Z" fill="#FF9F04"/>
</g>
<defs>
<clipPath id="clip0">
<rect x="44" y="48" width="74" height="74" fill="white"/>
</clipPath>
</defs>
</svg>
