<svg width="133" height="134" viewBox="0 0 133 134" fill="none" xmlns="http://www.w3.org/2000/svg">
<path d="M8 76.5C8 108.256 33.7436 134 65.5 134C97.2564 134 123 108.256 123 76.5C123 44.7436 97.2564 19 65.5 19C33.7436 19 8 44.7436 8 76.5Z" fill="#9B75EC"/>
<circle r="30.5" transform="matrix(-1 0 0 1 35.5 57.5)" fill="#9B75EC"/>
<circle r="6" transform="matrix(-1 0 0 1 98 42)" fill="#9B75EC"/>
<ellipse rx="31" ry="31.5" transform="matrix(-1 0 0 1 58 31.5)" fill="#9B75EC"/>
<circle r="8.5" transform="matrix(-1 0 0 1 8.5 11.5)" fill="#9B75EC"/>
<g clip-path="url(#clip0)">
<path d="M128.188 52.8863L124.562 49.6562C124.562 47.3359 122.664 45.4375 120.344 45.4375C118.108 45.4375 116.125 47.2516 116.125 49.6562V67.4706L103.469 79.087C104.073 78.9526 117.347 83.0858 117.981 83.0858L124.562 77.4919L129.836 73.8656L128.188 52.8863Z" fill="#E3A76F"/>
<path d="M77.875 67.671V49.6562C77.875 47.2516 75.8923 45.4375 73.6562 45.4375C71.3359 45.4375 69.4375 47.3359 69.4375 49.6562L65.4164 55.2769L66.2075 68.4604L69.4375 82.0106C70.9821 80.0756 73.3686 78.8671 76.019 78.8671C76.6532 78.8671 89.9273 78.9526 90.5312 79.087L77.875 67.671Z" fill="#F2BB88"/>
<path d="M83.2329 63.2264C81.5876 61.5812 78.8875 61.5812 77.2422 63.2264C75.6593 64.8092 75.5698 67.5026 77.2422 69.1749L81.4609 73.3937C82.3373 74.2695 82.2695 75.5807 81.4609 76.3888C80.7519 77.1772 79.2227 77.1837 78.5079 76.3888L71.2937 69.1749C70.1123 67.9936 69.4375 66.3904 69.4375 64.7031V41.2187C69.4375 38.8141 67.4548 37 65.2187 37C62.8984 37 61 38.8984 61 41.2187V70.8202C61 72.7185 61.5062 74.5748 62.5187 76.2201L72.7703 93.306C73.3609 94.3185 73.6564 95.4154 73.6564 96.5546V106.89C73.6564 108.072 74.5843 109 75.7657 109H94.7501V79.8904C94.7501 76.5999 93.4423 73.4359 91.122 71.1153L83.2329 63.2264Z" fill="#F2D1A5"/>
<path d="M109.572 49.1639C109.572 54.1423 104.931 57.6436 101.092 60.8922C100.248 61.6092 99.3203 62.3686 98.3921 63.2125C98.0124 63.55 97.5062 63.7187 96.9999 63.7187C96.4937 63.7187 95.9875 63.5501 95.6076 63.2125C94.6796 62.3687 93.7514 61.6093 92.9078 60.8922C87.9717 56.7579 84.4281 53.7203 84.4281 49.1639C84.4281 44.7766 87.6343 41.3594 91.7687 41.3594C94.089 41.3594 95.8186 42.4141 96.9999 43.7641C98.1813 42.4141 99.9109 41.3594 102.231 41.3594C106.365 41.3594 109.572 44.7766 109.572 49.1639Z" fill="#8051E3"/>
<path d="M128.781 37C126.545 37 124.562 38.8141 124.562 41.2187V64.7031C124.562 66.3904 123.888 67.9936 122.706 69.1749L115.492 76.3888C114.783 77.1772 113.254 77.1837 112.539 76.3888C111.73 75.5807 111.663 74.2695 112.539 73.3937L116.758 69.1749C117.559 68.3734 117.981 67.2765 117.981 66.2218C117.981 65.1249 117.559 64.0279 116.758 63.2264C115.112 61.5812 112.412 61.5812 110.767 63.2264L102.878 71.1154C100.558 73.4359 99.2499 76.5999 99.2499 79.8904V109H118.234C119.416 109 120.344 108.072 120.344 106.89V96.5546C120.344 95.4154 120.639 94.3185 121.23 93.306L131.481 76.2201C132.494 74.5748 133 72.7184 133 70.8202V41.2187C133 38.8984 131.101 37 128.781 37Z" fill="#F2BB88"/>
<path d="M109.572 49.1639C109.572 54.1423 104.931 57.6436 101.092 60.8922C100.248 61.6092 99.3202 62.3686 98.3921 63.2125C98.0124 63.55 97.5062 63.7187 96.9999 63.7187V43.7641C98.1813 42.4141 99.9109 41.3594 102.231 41.3594C106.365 41.3594 109.572 44.7766 109.572 49.1639Z" fill="#6334C8"/>
</g>
<defs>
<clipPath id="clip0">
<rect x="61" y="37" width="72" height="72" fill="white"/>
</clipPath>
</defs>
</svg>
