<svg width="31" height="31" viewBox="0 0 31 31" fill="none" xmlns="http://www.w3.org/2000/svg">
<g clip-path="url(#clip0)">
<path d="M27.1053 26.8667H29.45V14.4667H16.1509V5.16669H2.06668V26.8667H27.1053Z" fill="#BC842C"/>
<path d="M27.3833 26.8667V14.4667H14.6009V5.16669H2.06668V26.8667H27.3833Z" fill="#FBB03B"/>
<path d="M2.06668 18.6H29.45V26.8666H2.06668V18.6Z" fill="#B96E16"/>
<path d="M2.06668 18.6H27.3833V26.8666H2.06668V18.6Z" fill="#F7931E"/>
<path d="M26.35 1.55C26.2791 1.55 26.212 1.56388 26.1434 1.57069C25.7491 0.647347 24.8341 0 23.7667 0C22.6993 0 21.7843 0.647347 21.39 1.57069C21.3213 1.56388 21.2542 1.55 21.1833 1.55C20.042 1.55 19.1167 2.47536 19.1167 3.61667C19.1167 4.75798 20.042 5.68333 21.1833 5.68333C21.811 5.68333 22.367 5.397 22.7457 4.95526C23.0593 5.09023 23.4039 5.16667 23.7667 5.16667C24.1294 5.16667 24.4741 5.09023 24.7876 4.95526C25.1663 5.397 25.7223 5.68333 26.35 5.68333C27.4913 5.68333 28.4167 4.75798 28.4167 3.61667C28.4167 2.47536 27.4913 1.55 26.35 1.55Z" fill="#CCCCCC"/>
<path d="M25.3167 10.3333H22.2167L20.6667 8.26666H26.8667L25.3167 10.3333Z" fill="#999999"/>
<path d="M20.6667 8.26666L22.2167 10.3333H23.7667L25.3167 8.26666H20.6667Z" fill="#B3B3B3"/>
<path d="M22.2167 10.3333H25.3167V14.4666H22.2167V10.3333Z" fill="#666666"/>
<path d="M22.2167 10.3333H24.2833V14.4666H22.2167V10.3333Z" fill="#808080"/>
<path d="M5.16666 7.23334H12.9167V14.4667H5.16666V7.23334Z" fill="#DBCF07"/>
<path d="M5.16666 7.23334H11.3667V14.4667H5.16666V7.23334Z" fill="#FCEE21"/>
<path d="M5.68333 28.9333H1.03333C0.462427 28.9333 0 28.4709 0 27.9C0 27.3291 0.462427 26.8666 1.03333 26.8666H29.9667C30.5376 26.8666 31 27.3291 31 27.9C31 28.4709 30.5376 28.9333 29.9667 28.9333H5.68333Z" fill="#ED1C24"/>
<path d="M29.9667 27.9C29.9667 27.3291 29.5042 26.8666 28.9333 26.8666H1.03333C0.462427 26.8666 0 27.3291 0 27.9C0 28.4709 0.462427 28.9333 1.03333 28.9333H28.9333C29.5042 28.9333 29.9667 28.4709 29.9667 27.9Z" fill="#F15A24"/>
<path d="M14.4667 26.35C14.4667 28.9182 12.3849 31 9.81666 31C7.24846 31 5.16666 28.9182 5.16666 26.35C5.16666 23.7818 7.24846 21.7 9.81666 21.7C12.3849 21.7 14.4667 23.7818 14.4667 26.35Z" fill="#1A1A1A"/>
<path d="M13.4333 26.35C13.4333 23.7987 11.5829 21.7305 9.29999 21.7305C7.01712 21.7305 5.16666 23.7987 5.16666 26.35C5.16666 28.9013 7.01712 30.9695 9.29999 30.9695C11.5829 30.9695 13.4333 28.9013 13.4333 26.35Z" fill="#333333"/>
<path d="M12.4 26.35C12.4 27.7766 11.2433 28.9333 9.81667 28.9333C8.39004 28.9333 7.23334 27.7766 7.23334 26.35C7.23334 24.9234 8.39004 23.7667 9.81667 23.7667C11.2433 23.7667 12.4 24.9234 12.4 26.35Z" fill="#666666"/>
<path d="M11.3667 26.35C11.3667 24.9521 10.4413 23.8189 9.3 23.8189C8.1587 23.8189 7.23334 24.9521 7.23334 26.35C7.23334 27.7479 8.1587 28.8811 9.3 28.8811C10.4413 28.8811 11.3667 27.7479 11.3667 26.35Z" fill="#808080"/>
<path d="M26.8667 26.35C26.8667 28.9182 24.7849 31 22.2167 31C19.6485 31 17.5667 28.9182 17.5667 26.35C17.5667 23.7818 19.6485 21.7 22.2167 21.7C24.7849 21.7 26.8667 23.7818 26.8667 26.35Z" fill="#1A1A1A"/>
<path d="M25.8333 26.35C25.8333 23.7987 23.9829 21.7305 21.7 21.7305C19.4171 21.7305 17.5667 23.7987 17.5667 26.35C17.5667 28.9013 19.4171 30.9695 21.7 30.9695C23.9829 30.9695 25.8333 28.9013 25.8333 26.35Z" fill="#333333"/>
<path d="M8.78334 0H6.25425C5.55064 0 4.86747 0.239665 4.31776 0.679386L2.58334 2.06667H14.9833L13.2489 0.679386C12.6997 0.239665 12.0165 0 11.3124 0H8.78334Z" fill="#DBCF07"/>
<path d="M9.76244 0H6.25425C5.55065 0 4.86747 0.239665 4.31776 0.679386L2.58334 2.06667H13.4333L11.6989 0.679386C11.1497 0.239665 10.4665 0 9.76244 0Z" fill="#FCEE21"/>
<path d="M2.06667 5.16665H0V2.06665H17.05V5.16665H2.06667Z" fill="#ED1C24"/>
<path d="M0 2.06665V5.16665H14.4667V2.06665H0Z" fill="#F15A24"/>
<path d="M24.8 26.35C24.8 27.7766 23.6433 28.9333 22.2167 28.9333C20.79 28.9333 19.6333 27.7766 19.6333 26.35C19.6333 24.9234 20.79 23.7667 22.2167 23.7667C23.6433 23.7667 24.8 24.9234 24.8 26.35Z" fill="#666666"/>
<path d="M23.7667 26.35C23.7667 24.9521 22.8413 23.8189 21.7 23.8189C20.5587 23.8189 19.6333 24.9521 19.6333 26.35C19.6333 27.7479 20.5587 28.8811 21.7 28.8811C22.8413 28.8811 23.7667 27.7479 23.7667 26.35Z" fill="#808080"/>
</g>
<defs>
<clipPath id="clip0">
<rect width="31" height="31" fill="white"/>
</clipPath>
</defs>
</svg>
